<svg width="525" height="546" viewBox="0 0 525 546" fill="none" xmlns="http://www.w3.org/2000/svg">
<path d="M217.201 351.35C217.513 391.55 217.352 424.797 236.967 457.058C257.513 490.898 295.181 532.296 365.762 529.706C410.655 528.025 437.032 508.611 454.778 484.781C476.997 454.9 482.876 414.201 464.258 382.866C449.317 357.728 427.756 345.482 406.236 352.092C392.189 356.42 377.565 369.346 382.543 391.79C385.032 403.013 400.719 417.434 390.263 432.936C383.321 443.165 364.674 449.036 345.403 442.621C317.563 433.275 301.82 407.943 306.476 381.965C308.186 372.501 308.859 352.077 339.212 335.493C353.689 327.593 374.955 325.999 405.9 319.396C439.532 312.255 471.521 284.828 486.306 259.973C504.431 230.519 511.96 195.761 507.65 161.446C503.555 122.82 464.446 64.9398 400.065 54.9765C359.948 48.7758 340.929 59.2109 330.477 78.8236C322.152 94.3861 322.698 131.324 358.336 140.505C382.722 146.746 408.378 164.849 402.056 197.281C398.994 210.651 392.191 222.873 382.441 232.52C372.691 242.166 360.397 248.839 346.995 251.758C324.189 256.216 300.57 253.727 279.194 244.612" fill="black"/>
<path d="M217.201 351.35C217.513 391.55 217.352 424.797 236.967 457.058C257.513 490.898 295.181 532.296 365.762 529.706C410.655 528.025 437.032 508.611 454.778 484.781C476.997 454.9 482.876 414.201 464.258 382.866C449.317 357.728 427.756 345.482 406.236 352.092C392.189 356.42 377.565 369.346 382.543 391.79C385.032 403.013 400.719 417.434 390.263 432.936C383.321 443.165 364.674 449.036 345.403 442.621C317.563 433.275 301.82 407.943 306.476 381.965C308.186 372.501 308.859 352.077 339.212 335.493C353.689 327.593 374.955 325.999 405.9 319.396C439.532 312.255 471.521 284.828 486.306 259.973C504.431 230.519 511.96 195.761 507.65 161.446C503.555 122.82 464.446 64.9398 400.065 54.9765C359.948 48.7758 340.929 59.2109 330.477 78.8236C322.152 94.3861 322.698 131.324 358.336 140.505C382.722 146.746 408.378 164.849 402.056 197.281C398.994 210.651 392.191 222.873 382.441 232.52C372.691 242.166 360.397 248.839 346.995 251.758C324.189 256.216 300.57 253.727 279.194 244.612" stroke="white" stroke-width="6" stroke-miterlimit="10" stroke-linejoin="round"/>
<path d="M138.498 297.9C80.8945 267.828 32.7973 203.192 36.8122 145.856C40.1327 98.7498 58.7131 60.7591 99.907 34.906C135.121 12.7518 179.256 9.95039 223.023 28.3176C282.493 53.162 293.684 115.443 296.021 132.787C299.777 160.582 288.042 255.299 245.551 315.813C199.05 382.152 164.147 395.626 134.594 378.099C112.668 365.157 120.061 325.166 143.428 290.638C161.7 264.725 175.036 235.664 182.766 204.913C190.48 176.956 187.837 143.798 172.192 138.861C156.546 133.925 143.817 143.433 147.14 163.895C148.665 172.824 155.507 184.34 183.337 202.617C175.503 237.263 160.2 269.781 138.498 297.9Z" fill="black" stroke="white" stroke-width="6" stroke-miterlimit="10" stroke-linejoin="round"/>
</svg>
